/* XPM */
static char *ed496dc61c1546f3d9ce931f709c4e90e5u3kA6hUuqPtxeZ[] = {
/* columns rows colors chars-per-pixel */
"32 32 199 2 ",
"   c None",
".  c #050404",
"X  c #0A0A0B",
"o  c #070809",
"O  c #0B0E11",
"+  c #0C1217",
"@  c #0C131A",
"#  c #131618",
"$  c #0D1C26",
"%  c #0E1E29",
"&  c #0F2531",
"*  c #112D3B",
"=  c #1D333D",
"-  c #18252C",
";  c #282C2D",
":  c #232729",
">  c #212E35",
",  c #353B3C",
"<  c #182E47",
"1  c #142E4A",
"2  c #063B4E",
"3  c #1B3246",
"4  c #14304A",
"5  c #133C4A",
"6  c #193A4C",
"7  c #123643",
"8  c #073D51",
"9  c #113152",
"0  c #153E59",
"q  c #153B53",
"w  c #223547",
"e  c #233C49",
"r  c #2A3B49",
"t  c #253B46",
"y  c #13404D",
"u  c #094354",
"i  c #0E495C",
"p  c #08455C",
"a  c #154353",
"s  c #194256",
"d  c #16415E",
"f  c #1B4B5D",
"g  c #144D5B",
"h  c #11505F",
"j  c #22434F",
"k  c #35464E",
"l  c #3F4A4D",
"z  c #394447",
"x  c #264450",
"c  c #364652",
"v  c #3C4B54",
"b  c #384753",
"n  c #0C4D64",
"m  c #164565",
"M  c #194F69",
"N  c #184960",
"B  c #0D5166",
"V  c #0D546A",
"C  c #1A5463",
"Z  c #1B556B",
"A  c #12596C",
"S  c #1C5A6B",
"D  c #145566",
"F  c #1A5673",
"G  c #1B5B75",
"H  c #1B5B7B",
"J  c #105F78",
"K  c #1E657E",
"L  c #176476",
"P  c #1C707E",
"I  c #226979",
"U  c #226576",
"Y  c #474C4E",
"T  c #424F55",
"R  c #44525A",
"E  c #4C5355",
"W  c #545B5D",
"Q  c #4E5C62",
"!  c #525F63",
"~  c #5A686D",
"^  c #646C6F",
"/  c #606F76",
"(  c #657175",
")  c #657379",
"_  c #68777C",
"`  c #687477",
"'  c #727B7F",
"]  c #146B83",
"[  c #1E6A84",
"{  c #1F6E8C",
"}  c #1D7585",
"|  c #1D738B",
" . c #1D7C8F",
".. c #16798B",
"X. c #1F7190",
"o. c #206E84",
"O. c #247582",
"+. c #257A89",
"@. c #217C95",
"#. c #217791",
"$. c #6F7D82",
"%. c #747E81",
"&. c #198296",
"*. c #1B8B9D",
"=. c #2A808A",
"-. c #31848F",
";. c #2A8A97",
":. c #22829C",
">. c #238C9D",
",. c #298694",
"<. c #1E8FA0",
"1. c #1D95A7",
"2. c #2285A1",
"3. c #248CA2",
"4. c #2394A5",
"5. c #2595AA",
"6. c #299AA9",
"7. c #3196A3",
"8. c #369BA6",
"9. c #3C9BA2",
"0. c #269BB1",
"q. c #2A9CB2",
"w. c #2CA1AF",
"e. c #25A1AE",
"r. c #26A5B4",
"t. c #2AA4B5",
"y. c #2CA9B5",
"u. c #2BADBD",
"i. c #2BA4BA",
"p. c #32ADBA",
"a. c #3EAFBA",
"s. c #34A7B6",
"d. c #2DB4BE",
"f. c #34B2BD",
"g. c #79878B",
"h. c #7E8D91",
"j. c #4AB3BA",
"k. c #2BAFC2",
"l. c #3EAAC0",
"z. c #2DB6C4",
"x. c #2CBBC9",
"c. c #37B5C3",
"v. c #39B5C2",
"b. c #33BAC6",
"n. c #3DBBC6",
"m. c #33BEC9",
"M. c #3CBDCA",
"N. c #41BBCB",
"B. c #49BCD0",
"V. c #35C1CA",
"C. c #3AC3CC",
"Z. c #2FC8D8",
"A. c #33C4D4",
"S. c #3DC6D2",
"D. c #3CC6D9",
"F. c #33CBD9",
"G. c #3ACBD5",
"H. c #3DD0D6",
"J. c #33D2DD",
"K. c #3FD6DC",
"L. c #2FD2E1",
"P. c #37DBE2",
"I. c #36D8E4",
"U. c #36E0EA",
"Y. c #3DEAED",
"T. c #3EE2E5",
"R. c #3DEDF1",
"E. c #47C3CC",
"W. c #46C6D1",
"Q. c #4DC5D2",
"!. c #42CBD4",
"~. c #49CDD6",
"^. c #41CBD8",
"/. c #45D1DD",
"(. c #4AD4DC",
"). c #44D9DE",
"_. c #51DADF",
"`. c #52D6DD",
"'. c #53C4D6",
"]. c #4ED6E2",
"[. c #47DCE1",
"{. c #4BDBE1",
"}. c #41DEE8",
"|. c #53DCE4",
" X c #5ADEE3",
".X c #4BE4EA",
"XX c #4DEAEE",
"oX c #47E5E9",
"OX c #56E4EA",
"+X c #43F0EE",
"@X c #4BECF1",
"#X c #52EFF3",
"$X c #4DF1F4",
"%X c #46F3F4",
"&X c #61E5EA",
"*X c #8F9DA2",
"=X c #96A5AB",
"-X c #99A8AD",
";X c #95A4A9",
/* pixels */
"                                                                ",
"                                                                ",
"                                                                ",
"                            . . . .                             ",
"                      . . . . o . . . . . .                     ",
"                  . . o : Y ^ $.%.` E ; o . .                   ",
"              . . . ; ) *X=X;X;X=X-X-X*X%., . . .               ",
"            . . o Y g.h.%._ $.$./ ( _ $.g.*XE # . .             ",
"            . o z ) ~ ! R v r r c b v R E ~ ` E X o .           ",
"          o o ; ! R k r < < w 1 1 < 3 w r k T ! , o o           ",
"        o X + l b e 3 4 1 9 9 9 9 9 4 4 4 3 e b Y # o o         ",
"        X + - c e 6 q s d d m d m m m d 0 q 6 e k = @ X         ",
"        @ $ = x s N m F F H [ [ [ [ F F M m N s x e % @ O       ",
"      @ % * 6 x Z G [ { o.o.X.X.{ { { { o.[ G Z f j * % @       ",
"      $ * 5 N S K } #.@.@.@.2.2.2.@.@.2.@.#.o.I S f a * $       ",
"      & 7 f L o.#.:.>.3.0.q.q.i.N.i.0.0.5.2.>.#.o.I Z 6 &       ",
"      * a S +.;.2.5.0.i.i.c.N.B.B.B.k.k.r.e.4.>.,.-.I f *       ",
"      7 f P -.8.q.q.k.x.x.m.^.D.D.D.m.m.z.d.t.0.8.9.+.f =       ",
"      y S P ;.7.s.c.B.M.Z.L.L.L.L.I.L.F.A.V.d.a.j.9.+.S 5       ",
"      y C =.;.7.p.M.^.'./.].I.U.I.U.I.I.J.G.C.Q.j.8.=.S y       ",
"      a g O.>.w.c.n.W.^.].].P.R.R.R.Y.P.)./.~.E.a.8.+.C y       ",
"        g P 4.w.v.n.M.^.]. X.X@X%X%X+XoX[.(.~.E.a.8.P g         ",
"        i L >.q.p.b.S.].].OXXX$X$X#X@XOXOX`.E.N.a.;.L a         ",
"          B ..4.t.b.C.S.(.[.oX+X#X#X&X&X_. XE.f.6.P h           ",
"          i A  .5.u.x.V./.).oXoX$XoX_.OX~.!.n.w.=.A u           ",
"            B J &.r.d.V.!._.).oXoX).)._.C.f.y.>.V u             ",
"              V ] *.e.d.V.V.H.H.).H.H.V.f.s.>.A u               ",
"                n J ..<.w.y.z.m.V.d.d.r.6.} B 2                 ",
"                    p V ] &.1.1.4.*...P A u                     ",
"                          n B V h u 8                           ",
"                                                                ",
"                                                                "
};
