/* XPM */
static char *e9c0cd294a7344fbed65a2391a59f02bAhEGIlVKkjFnMhhd[] = {
/* columns rows colors chars-per-pixel */
"32 32 166 2 ",
"   c #140613",
".  c #160C17",
"X  c #140D1A",
"o  c #180E19",
"O  c #0E1018",
"+  c #14151C",
"@  c #1A161C",
"#  c #161A1C",
"$  c #1A1A1D",
"%  c #271112",
"&  c #2B1417",
"*  c #21161C",
"=  c #23181D",
"-  c #321616",
";  c #331917",
":  c #391B17",
">  c #351618",
",  c #351A19",
"<  c #3A1D1A",
"1  c #1C231E",
"2  c #1D2B1F",
"3  c #1B301F",
"4  c #20211E",
"5  c #33241D",
"6  c #1A1720",
"7  c #1C1B21",
"8  c #221C23",
"9  c #2B1B22",
"0  c #251F28",
"q  c #1E2322",
"w  c #232324",
"e  c #2A2025",
"r  c #232B22",
"t  c #2C2A2D",
"y  c #332224",
"u  c #3C2521",
"i  c #342F22",
"p  c #33242B",
"a  c #38272E",
"s  c #322D2E",
"d  c #243224",
"f  c #273926",
"g  c #2B3A26",
"h  c #29342A",
"j  c #263E2A",
"k  c #2A3A2A",
"l  c #333424",
"z  c #3D3124",
"x  c #353C26",
"c  c #3E3926",
"v  c #2C2330",
"b  c #392B38",
"n  c #3A3433",
"m  c #3C3936",
"M  c #39323B",
"N  c #401D16",
"B  c #401E19",
"V  c #43221A",
"C  c #4B261B",
"Z  c #4D291C",
"A  c #542C1D",
"S  c #592D1D",
"D  c #5B301D",
"F  c #4C2820",
"G  c #542D20",
"H  c #582F21",
"J  c #473C27",
"K  c #5B3222",
"L  c #4D3635",
"P  c #42323F",
"I  c #4C373C",
"U  c #513636",
"Y  c #563C36",
"T  c #5E3E37",
"R  c #5E3F38",
"E  c #623622",
"W  c #653923",
"Q  c #6C3B23",
"!  c #713D24",
"~  c #264029",
"^  c #2A442C",
"/  c #27482B",
"(  c #32452D",
")  c #304A2E",
"_  c #354732",
"`  c #374238",
"'  c #3F4A3A",
"]  c #2E5231",
"[  c #345634",
"{  c #365C36",
"}  c #3C5539",
"|  c #3A5F38",
" . c #634319",
".. c #404D3C",
"X. c #5F4139",
"o. c #42553A",
"O. c #45593F",
"+. c #734025",
"@. c #724D27",
"#. c #73472B",
"$. c #614239",
"%. c #48623E",
"&. c #453641",
"*. c #4D3E45",
"=. c #514047",
"-. c #564B45",
";. c #584D45",
":. c #56474B",
">. c #5B484D",
",. c #4B5C43",
"<. c #4E5348",
"1. c #4F5B48",
"2. c #515844",
"3. c #575649",
"4. c #59564A",
"5. c #56594B",
"6. c #5C5C4E",
"7. c #60534B",
"8. c #615E4E",
"9. c #665E52",
"0. c #695857",
"q. c #5D684D",
"w. c #636253",
"e. c #6D6156",
"r. c #706257",
"t. c #726559",
"y. c #79685E",
"u. c #8B652C",
"i. c #816F64",
"p. c #837166",
"a. c #897666",
"s. c #8C7A67",
"d. c #867268",
"f. c #89756A",
"g. c #8C796B",
"h. c #97816F",
"j. c #96826E",
"k. c #97816D",
"l. c #95866F",
"z. c #958171",
"x. c #9B8572",
"c. c #9D8571",
"v. c #9D8672",
"b. c #9C8672",
"n. c #9F8873",
"m. c #9F8974",
"M. c #9F8B74",
"N. c #A08973",
"B. c #A18874",
"V. c #A18B76",
"C. c #A28C77",
"Z. c #A58D77",
"A. c #A58E77",
"S. c #A48C75",
"D. c #A28B75",
"F. c #A38D78",
"G. c #A78F79",
"H. c #A58F7A",
"J. c #A68E78",
"K. c #A79079",
"L. c #A99079",
"P. c #A8907A",
"I. c #AA937B",
"U. c #AC947C",
"Y. c #AF967D",
"T. c #A9917A",
/* pixels */
"7 7 7 7 7 7 7 7 7 7 7 7 7 7 7 7 7 7 7 7 7 7 7 7 7 7 7 6 7 7 7 7 ",
"7 7 7 7 7 7 7 7 7 7 7 7 7 7 7 7 7 7 7 7 7 7 7 7 7 7 7 7 7 7 7 6 ",
"7 7 7 7 7 7 7 7 7 7 7 7 q 7 7 7 7 7 q 7 7 7 7 7 7 7 7 7 7 7 7 7 ",
"7 $ 7 7 7 7 7 6 @ @ $ + 6 6 6 + 6 + + 6 + + @ @ 6 + 6 7 7 7 7 7 ",
"7 7 7 7 7 6 m ,.e.r.' w.3.3.r.r.t.y.t.t.0.t.r.t.r.r.8 7 7 7 7 7 ",
"7 7 7 7 7 6 q f O.} ] q.o.) %.%.q.z.H.U.I.U.L.H.Y.P.w 7 # 7 7 7 ",
"7 7 7 7 7 7 d r 1 # 1 d d w $ 3 3 } z.m.b.b.h.F.-.m q 7 # 7 # 7 ",
"7 7 7 7 7 7 f r ^ j q M P >.b v w k *.=.*.y.x.H.s O 7 7 7 7 7 7 ",
"7 7 7 7 7 $ $ d l r ' I p p a a p y p p p f.S.H.n + 7 7 7 7 7 7 ",
"7 7 7 7 7 6 @ ^ l 4 ..$.N < ; - B < < > 9 y.x.B.P w 8 7 7 $ 7 $ ",
"7 7 7 7 7 r 1 4 < 4 5.$.D W W A E K W 5 9 p.N.K.S.t.8 7 7 7 7 7 ",
"7 7 7 7 $ 1 4 $ 5 g w.$.Z W Q E K H +., 9 d.S.U.4.$ 7 7 $ 7 $ 7 ",
"7 7 7 7 7 7 + f d d ,.$.A E Q W K G Q , 9 p.x.B.s @ 7 7 7 7 $ 7 ",
"7 7 7 7 7 7 @ d r d 6.$.D Q Q W K K Q ; 9 i.H.H.m 7 7 7 7 7 7 7 ",
"7 7 7 7 7 w 7 o ^ j w.$.D Q Q E K H Q , 9 f.z.g.g.g.w 7 8 $ 7 $ ",
"7 7 7 7 7 7 d r @ j 6.T A Q Q W K K +., 9 f.d.:.g.B.e @ $ 7 7 7 ",
"7 7 7 7 $ $ $ f r r 8.$.S E ! W K H +., 9 i.z.s.B.;.7 7 7 7 7 $ ",
"7 7 7 7 7 8 o @ f f 9.Y u.#.S E G F K ; 9 d.S.L.a.7 7 7 7 7 7 7 ",
"7 7 7 8 7 7 $ @ 4 l 8.L  .@.E ! ! E W V 9 i.m.b.s @ 7 7 $ 7 7 $ ",
"$ 7 7 7 7 7 w ^ f g 4.L % E ! W Q W +.V 9 i.H.s.w 7 7 7 7 7 7 7 ",
"7 7 7 7 7 7 $ 1 x r w.$.C < < G Z , 5 - 9 d.H.S.n + 7 7 7 $ 7 7 ",
"7 7 7 7 7 7 r $ 1 ^ 6.$.S K Q W K K +., 9 f.B.L.n + 7 7 7 7 $ 7 ",
"7 8 7 7 $ w @ d r r w.R A E Q E K G Q , 9 d.B.m.n # 7 7 7 7 7 7 ",
"7 7 7 7 7 @ . f ( ( w.$.S E ! K K K +., 9 f.s.o._ k 6 7 6 @ 7 7 ",
"7 7 7 7 7 7 h [ [ { 5.T A E Q E G G Q - 9 d.1./ [ | h 6 7 7 7 7 ",
"7 7 7 7 6 r w z l J <.T A G G Q K G K : 9 0.h c l c ( q 6 7 7 7 ",
"7 7 7 7 q 1   , G 5 w.I S ! Q Q ! ! ! N p &.X - G > # f 7 7 7 7 ",
"7 7 7 6 # @ . > K y t w * * * * = = = * 8 8 . = K u X q 7 7 7 $ ",
"7 7 7 7 7 7 7 @ 6 7 6 7 7 7 7 7 7 7 7 7 7 7 6 6 O 7 q 6 7 7 7 7 ",
"7 q 7 7 7 7 7 7 7 7 7 7 7 7 7 q 7 8 7 7 7 7 7 7 q 7 6 7 7 7 7 7 ",
"7 7 7 7 7 7 7 7 7 q 7 7 7 7 7 7 7 7 7 7 7 7 7 7 7 7 7 7 6 7 7 6 ",
"7 7 7 7 7 7 7 7 7 7 7 7 7 7 7 7 7 7 7 7 7 7 7 7 7 7 7 7 7 6 7 7 "
};
