/* XPM */
static char *_f9134a5282645c3a151308aebd537583Df2DPsyaZubAwie[] = {
/* columns rows colors chars-per-pixel */
"64 32 194 2 ",
"   c #72AE3D",
".  c #6EB53F",
"X  c #6FB93C",
"o  c #72B937",
"O  c #70B63F",
"+  c #74B83F",
"@  c #76B646",
"#  c #74BC46",
"$  c #7BBD47",
"%  c #72B54E",
"&  c #74BD4C",
"*  c #7BBE4C",
"=  c #76B653",
"-  c #76BA51",
";  c #7BBD54",
":  c #7CB45C",
">  c #7CBB5A",
",  c #6FC048",
"<  c #76C146",
"1  c #7CC444",
"2  c #75C34C",
"3  c #7BC44C",
"4  c #75C94B",
"5  c #7CC94D",
"6  c #76C351",
"7  c #7CC453",
"8  c #77C850",
"9  c #7CCA54",
"0  c #7EC459",
"q  c #7ECB59",
"w  c #7DD155",
"e  c #7FD058",
"r  c #81BB57",
"t  c #82BC5C",
"y  c #85BE60",
"u  c #87BE6A",
"i  c #83C445",
"p  c #81C44C",
"a  c #82CB4E",
"s  c #8AD04B",
"d  c #82C554",
"f  c #89C653",
"g  c #82CB55",
"h  c #8ACE54",
"j  c #83C45B",
"k  c #88C75F",
"l  c #84CB5B",
"z  c #8ACD5C",
"x  c #84D256",
"c  c #8CD255",
"v  c #85D25C",
"b  c #8AD25D",
"n  c #87DA5A",
"m  c #8DD859",
"M  c #88D85F",
"N  c #8ED85F",
"B  c #8ADA5F",
"V  c #91D356",
"C  c #92D65D",
"Z  c #93D95D",
"A  c #99DD5D",
"S  c #9DE05F",
"D  c #86C261",
"F  c #84C562",
"G  c #8AC760",
"H  c #8BC763",
"J  c #8DC665",
"K  c #8AC563",
"L  c #86CB61",
"P  c #82CC61",
"I  c #84CD61",
"U  c #87CC61",
"Y  c #87CB66",
"T  c #85CB62",
"R  c #8ACA61",
"E  c #88CD60",
"W  c #88CD62",
"Q  c #8ACB65",
"!  c #8ACF64",
"~  c #88CF65",
"^  c #8FCE66",
"/  c #8BCD63",
"(  c #86C668",
")  c #8CC66D",
"_  c #87CC6B",
"`  c #8CCE6D",
"'  c #8CCC6A",
"]  c #90CF64",
"[  c #91CF67",
"{  c #93CF6B",
"}  c #90CC6A",
"|  c #92CC6C",
" . c #84D161",
".. c #87D661",
"X. c #87D067",
"o. c #86D261",
"O. c #8BD161",
"+. c #8AD162",
"@. c #8CD061",
"#. c #88D762",
"$. c #8CD562",
"%. c #8CD663",
"&. c #8DD067",
"*. c #8ED666",
"=. c #8CD363",
"-. c #8BD961",
";. c #8FD863",
":. c #8CD965",
">. c #8CDA64",
",. c #8ED16A",
"<. c #8FD168",
"1. c #8DD36A",
"2. c #8FDB6E",
"3. c #8FDA6A",
"4. c #90D060",
"5. c #92D463",
"6. c #9AD760",
"7. c #90D963",
"8. c #90DB64",
"9. c #95D867",
"0. c #93DE67",
"q. c #93DA65",
"w. c #9CDE62",
"e. c #90D56A",
"r. c #91D26C",
"t. c #94D56D",
"y. c #93D46C",
"u. c #99D768",
"i. c #91D969",
"p. c #91DA6E",
"a. c #93DB6B",
"s. c #9BDC6C",
"d. c #8EC17D",
"f. c #94CF71",
"g. c #94CE71",
"h. c #94CD7B",
"j. c #8FD471",
"k. c #93D473",
"l. c #99D573",
"z. c #95DF70",
"x. c #95D972",
"c. c #9ADC72",
"v. c #9AD279",
"b. c #97DA79",
"n. c #9DDD7A",
"m. c #A0D57D",
"M. c #A2DE7C",
"N. c #9BE365",
"B. c #94E16B",
"V. c #9CE46B",
"C. c #97E170",
"Z. c #9BE373",
"A. c #9DE27C",
"S. c #9DE97D",
"D. c #A3E365",
"F. c #A7EA67",
"G. c #A3EA6C",
"H. c #ABEE6F",
"J. c #A3E474",
"K. c #A5EB75",
"L. c #ADEF72",
"P. c #A4E47B",
"I. c #A6EA7A",
"U. c #ACEB78",
"Y. c #B2EF78",
"T. c #ADF575",
"R. c #AFF67C",
"E. c #B2F476",
"W. c #97CD82",
"Q. c #A7DE83",
"!. c #A3E683",
"~. c #ABE584",
"^. c #A6E882",
"/. c #ABEC83",
"(. c #AAE58B",
"). c #ABEA8B",
"_. c #B2EE8A",
"`. c #AEF480",
"'. c #ADF38A",
"]. c #B3F382",
"[. c #B8F58E",
"{. c #B3EB92",
"}. c #B4F494",
"|. c #BCF995",
" X c #BEFC9B",
".X c #C1FF9A",
"XX c #C5FEA6",
"oX c #CBFFA6",
"OX c #CCFFAC",
"+X c #D1FFA7",
"@X c #D3FFAC",
"#X c #D4FFB2",
"$X c #DDFFB8",
"%X c #E1FFC0",
/* pixels */
"q 6 8 q >.4 4 4 :.T ,.&.; 0 U 7 q e :.#.q 9 2 9 8 w w 8 q e q 8 9 2 5 w n 4 4 x v v 5.h 8 & q 9 7 g -.v x 9 3 q 0 q T 0 0 g v d ",
"l v v , 8 4 w 8 3 =.G 0 y.&.0 j # q e  .9 8 5 9 #.B g 8 9  .X.q 7 x v 9 w 4 w 8 9 %.l 7 a.%.0 9 & v v 9 4 < 9 v 2.X.q 0 0 X.g 3 ",
"l 3.:.8 9 9 9 7 j j j r [ j j 9 j g # & v g g g 0.7.v 9 9 k z 7 h 7.8.8 8 9 q 8 z ; r j j Q j - 9 g < 5 v g 9 < C.2.Y q q z l g ",
"k o.v q g 9 9 q ,.j t J G G [ d j O.f d 7 < 2 l b b l 9 l P l 8 l N b 8 0 6 0 U ' ; K | j Q r.l l -.9 1 5 < < h  .#.P 0 0 k l 9 ",
"d j 7 9 j v 0 T r } J t r H d $ f 4.5.a f C * * d f d g z O.v j 7 9 9 q P X._ ` > g.| t y y r ; j v Z 3 a m 5 5 g 7 ; d ~ e.! ; ",
"d O.b ;.%.:.0 ; ).@X@X~.r j 5.k 4.] 4.r 4.].J.f z b z f j l k j * h d o.1.2.` ( (.#X#Xm.) J { [ 7 9 5 < m T.N.< 5 j z &.e.p.,.U ",
"z 5.:.Z.C.1.0 F .XOX$X~.y.j 5.z z u.] s.5.u.].s.b =.! l q j 0 9 f h d a.2.j._ h.XX#X%X{.Q.{ M.x.d g 5 h a s G.N.* f e.y.' Q ' 1.",
"a.v d C.p.o.T !.k.v.v.K @XJ.f z 4.z d ].J.@ u.d f k k j 0 9 0 j m 9 2 B.p.X._ ).h.v.v.g.@XQ.Q / b d # R.F.o m 1 5 d l F U F U ( ",
"l  .q q q q q x.v.= F Q U 7 q 9 j h 7 d z 7 7 Q j O.0 0 q q T 6 9 x w 5 q q _ k.g.: t Q H F 0 l j d * 5 a i 1 h p 5.; z > F T 0 ",
"8 q 8 9 q q 6 0 > j k.~ ; 7 v v # M v d =./ j & 7 ' 2._ 0 0  .q 2 5 4 5 v q 6 0 0 ( l./ 7 j j v # b h 5 c c i @ p k b.U j F _ F ",
"q e 8 8 ....9 g &.d j k l g 2 9 q 9 2 j 5.O.j ,.l ' j.q > q P 2 w a 5 4 n ..g j =.k r l j v 8 q x 9 < a Z b d C f l.G r.= ' Q - ",
" .X.q 8 n ..n c l z j d q v 4 8 e g 9 8 z l - 7 j 0 6 0 '.OXS.6 n n 5 4 v B v h f z p d 7 ..2 e e g 5 3 g f $ * F ; H > /.OXC.0 ",
"0  .q 8 w 5 1 1 h $ r z B.v < >.-.x q 7 l j r u. X.X' % 0 A.= 0 5 g 9 5 x 5 < 5 c 3 p 5.7.v , >.:.x q 7 d f 7 l.|.XX_ = 0 x.7 7 ",
"6 q 9 9 1 1 1 c V i f 4.V.l 2 x B.9 8 9 O.! / .XoXoX@X% '.% l q 3 g 9 5 5 1 1 b V $ i C B.x 2 e B.8 3 9 b z ' .X#XOXXX> !.l - 9 ",
"j z z g s 1 s F.i w.Y.$ 3 9 v , 2 9 O.7 j =.r [ .X_.} t l.r.j 7 j l z g g 5 s F.i A H.p $ 9 v , 2 9 M 7 j X.0 j. X{.( > n.o.v # ",
"j ! $.Z V + i S L.V 6.$ C < d 9 9 8 v 9 9 k % k ; ; ; k R = G j 0 ! $.C m 1 p w.E.V C 3 h 2 9 9 9 7 b 7 0 T = ) > > ; Y 0 6 9 e ",
"3 z z z h 1 a $ V.b 5 p p f f g 3 d k g 7 9  .#.l 9 7 7 Q j / z j [ X.5.l 3 5 3 N.c 3 9 g f 9 d j j j j l q T 1.l ; j 9 l v #.3 ",
"r z h z d d b z j 7 * d z l d 7 f j f 7 9  .>. .7 9 k / u.c.t.j ; k k &.d & 9 4 e 2 < g v l d j j } Q F k X.1.:.v j l d l a.B.q ",
"f f ! / j j x.r.` ' j.b.n.k.` Y k ] z 7 q :.B...q g z / z 5.t.&.| | y.l.! 9 ..v 9 2 9 v ;.l d 0 [ l.x.G X.C.Z.p.$.%./ d 5 l b 9 ",
"/ j / / T T k.' j.` j.k.b.k.` ) j 5.&.7 8 v ..v h 5 l 8./ z &.! l.} l.l./ j l 7 v 8 g v #.g 0 j { M.k.Q X.p.p.5.8.4.z h 7 7 8 9 ",
"U 7 k 0 k j ~ 0 q 0 0 F Y j F U d z l d e 9 8 9 8 * 3 d f z z 7 J t ( F F j l 7 9 8 7 q q 0 q ! H } F k T o.q 9 d 7 * * p g 9 4 ",
"r r ~ = 0 7 0 q j 8 7 9 d 9 j z j f d l >.v 2 8 3 b 5.* ; 7 ! k K y } = j 7 l q q 8 8 0 q 7 0 T j t j ! 1.z 7 9 # h 5.5 f 9 g 9 ",
"( x.).U Q 7 9 O.m g 5 5 5 5 5 h z z ; d ;.v 8 v 3 8.I.8.Z.f l ! H l.~.j U ; 7 z :.q 7 q q 6 9 P R K j ! 1.l q v g 7.K.7.V.5 x x ",
"k.}.OXA.c.j 9 :.8.x 5 5 1 5 a b 5.5.7 2 9 9 9 -.v 3 f d R.g 3 j y.[.+XM.n.l l :.:.q 9 q q 9 l 1.t.[ > ; q q q v M # f z R.d 5 5 ",
"` > !.k.A.7 7 p.a.z 2 9 1.q 8 U z f d d 9 7 9 7 5 3 7 d 7 < 8 j ] r P.u.s.d 7 0.8.v 9 5 -.9 8 z k j j 0 0 9 9 9 g 3 3 3 d 3 3 7 ",
"t > e.= > 3.0 0 9 9 7 P j.q 6 0 ] r > z ~ 9 7 g z f f b z g 9 9 $ r s.@ 3 f g f g 7 5 g $.9 9 d ~ j ; l o.j 8 8 v f l z z g 7 5 ",
"p h $ h h . f 5 9 9 7 0 q q _ j.@X/.j 7 z %.v f l f g h z l 9 e p f 5 a b O x 5 9 3 8 7 v 9 l %.@X_.k 6 v 2.O.j g g f z v h d g ",
"V i H.h Z m 1 a d 9 7 6 0 0 _ k.^./.P.t.p.C.%.7 d 5 7 7 9 q v #.m p G.z C 9.1 d g d d 6 d 9 O.a.P.U.I.a.>.2.#.7 7 7 7 f j j T a.",
"D.i D.w.L.A 1 a a 5 g 9 5 9 0 0 u.r.j & j p.%.8 d d l l d 8 e B.N.5 V.V.G.7.< z d d l 7 l 7 k 7 e.&.d 6 q %...8 d j f l 9 0 Q p.",
"4.f   ~.H.+ 5 c 1 5 g g d l z 7 r j Q U ; & 6 j z b =.b 0 7 q  .x a X G.J.. f b j 7 z 7 0 k X.j j f z l 7 2 6 q #.~ / / j j j ~ ",
"r u u h.t G > d f h z g 3 l 7.z Q j G &.X.T l o.e.b z k j 9 8 9 2 1 5 9 g b l l ,.! ` 0 F Q k./ d ; 2 q l q 7 q O.z Q / ~ Y j T ",
"d.u W.W.h.( j > v b #.g < 5 h 3 ! x.b.r.~ T z P s.! d 7 d q q 9 5 5 5 9 h $.O.O.t.e.n.1.) ` x.j > z =.v 7 8 9 g T 0 j Q r.1.1._ "
};
