/* XPM */
static char *_43ab3fd42c14502ae10ad0a42d913faNpcKtI9EYBTR4SpR[] = {
/* columns rows colors chars-per-pixel */
"32 32 184 2 ",
"   c #101308",
".  c #070A13",
"X  c #1F1817",
"o  c #132F0F",
"O  c #0D3501",
"+  c #0D3C00",
"@  c #113700",
"#  c #133E03",
"$  c #163E0A",
"%  c #193F0C",
"&  c #15360A",
"*  c #142B14",
"=  c #182E18",
"-  c #16271E",
";  c #1B3E19",
":  c #153816",
">  c #2C2B1A",
",  c #071124",
"<  c #161F3A",
"1  c #1A3124",
"2  c #1A2A33",
"3  c #192A35",
"4  c #3A3421",
"5  c #313A2E",
"6  c #2F3932",
"7  c #2C353D",
"8  c #353D37",
"9  c #343D39",
"0  c #4E3D35",
"q  c #433730",
"w  c #0E4100",
"e  c #144403",
"r  c #184606",
"t  c #184807",
"y  c #184608",
"u  c #1A490A",
"i  c #174804",
"p  c #0F510D",
"a  c #1C4712",
"s  c #195117",
"d  c #224D0F",
"f  c #2E550F",
"g  c #244D12",
"h  c #244E1F",
"j  c #28431F",
"k  c #2C5515",
"l  c #2D5619",
"z  c #265319",
"x  c #305713",
"c  c #335C15",
"v  c #345E1B",
"b  c #176C12",
"n  c #226F1E",
"m  c #356415",
"M  c #36601C",
"N  c #3A6C1B",
"B  c #39671C",
"V  c #3E721E",
"C  c #31472E",
"Z  c #275724",
"A  c #2B512A",
"S  c #2F4C3A",
"D  c #284635",
"F  c #3B4835",
"G  c #235831",
"H  c #3E5232",
"J  c #375131",
"K  c #376020",
"L  c #3E7120",
"P  c #3F6E37",
"I  c #454432",
"U  c #495F35",
"Y  c #497828",
"T  c #407322",
"R  c #1F2B4D",
"E  c #18244B",
"W  c #1F2B56",
"Q  c #2A2E44",
"!  c #242D4D",
"~  c #212C46",
"^  c #2D3345",
"/  c #2E364D",
"(  c #253B4B",
")  c #303A40",
"_  c #353B4B",
"`  c #3A3D4C",
"'  c #303549",
"]  c #232E55",
"[  c #252E59",
"{  c #263255",
"}  c #283557",
"|  c #27315A",
" . c #293559",
".. c #2B385B",
"X. c #333C58",
"o. c #26424B",
"O. c #365E4A",
"+. c #39614E",
"@. c #334165",
"#. c #384869",
"$. c #3A4A67",
"%. c #504E4F",
"&. c #55564F",
"*. c #444B53",
"=. c #595652",
"-. c #5C5A53",
";. c #545A58",
":. c #474749",
">. c #5E7546",
",. c #416E5B",
"<. c #5A615F",
"1. c #45755C",
"2. c #46785E",
"3. c #63664F",
"4. c #657A48",
"5. c #666359",
"6. c #676556",
"7. c #706851",
"8. c #6F7259",
"9. c #737659",
"0. c #404F62",
"q. c #4F5066",
"w. c #41586B",
"e. c #40587D",
"r. c #4D7E6F",
"t. c #517E77",
"y. c #446965",
"u. c #6F6961",
"i. c #716C62",
"p. c #707772",
"a. c #897F5A",
"s. c #827C63",
"d. c #847D6A",
"f. c #438525",
"g. c #458826",
"h. c #4B852E",
"j. c #4C8A2E",
"k. c #518F2F",
"l. c #4F912A",
"z. c #50922A",
"x. c #4E8C30",
"c. c #508D30",
"v. c #7AA451",
"b. c #7FAA54",
"n. c #52847C",
"m. c #82AD56",
"M. c #86B359",
"N. c #88B55A",
"B. c #8B826E",
"V. c #868169",
"C. c #8C8974",
"Z. c #9B9F73",
"A. c #9B967C",
"S. c #9E9A7D",
"D. c #929272",
"F. c #A2A676",
"G. c #A9AD77",
"H. c #A2A37B",
"J. c #A7AA76",
"K. c #ADB078",
"L. c #598989",
"P. c #5E8C99",
"I. c #619399",
"U. c #598AA4",
"Y. c #618EA2",
"T. c #669BA1",
"R. c #6896AE",
"E. c #6BA3A8",
"W. c #6EA1B6",
"Q. c #75AABF",
"!. c #7CB4CE",
"~. c #79B0C0",
"^. c #7DB7D1",
"/. c #7FB9D3",
"(. c #8EAE97",
"). c #95B8A9",
"_. c #83AEB3",
"`. c #9BC0AE",
"'. c #9DC6B7",
"]. c #A0C4AE",
"[. c #80B9D5",
"{. c #83BCDB",
"}. c #81B7D3",
"|. c #88C3E4",
/* pixels */
"^.^.}.^.^.^.^.}.^.^.^.^.^.^.^.^.^.^.^.^.^.^.^.^.^.^.^.^.^.^.^.^.",
"^.^.^.^.^.^.^.^.^.^.^.^.^.^.^.^.^.^.^.^.}.^.^.^.^.^.}.^.^.^.^.^.",
"^.}.^.^.^.^.^.^././.^.^.^.^.^.^.^.^.^.^.^.^.^.^.!.^.^.^.^.^.^.^.",
"!.!.!.^.^.!.[.}.~.!./.^.^.^.^.^.^.^.^.^.!.!.!.{.{.{.!.!.^.^.^.^.",
"!.!.!.!.^.[.I.I.A Z L./.^._.`.).).).'.!.^.{.!.t.n.n./.^.!.!.!.^.",
"^.^.^.[.~.P.% Z a e u L./.p.V.7.V.6.D.}.Q.n.+.# + a I.^.^.!.^.!.",
"!.!.^.^.L.@ u u t t t a E.$.Q / / Q $.Q.y.O i u t t a T.~.!.!.{.",
"[.{.|.R.& u u u t y t u u 3 |  .| W e.A # u r t t t e Z /.|./.L.",
"W.,.y.+.* u t y t y y u * 3  .] } { #.1 $ u u e t t e Z 1.1.+.= ",
"P.O e e e e e e w y t u e 2  .{ } { @.; r y r u t t y + + + + , ",
"Y.y t u v k v k M g e u r 2  .} } { @.; i r u r t y a K l K l C ",
"Y.u t j S.9.Z.9.H.U w u r 3  .{ } { @.; r u r u u e H H.8.H.8.H.",
"U.O w = d.5.%.&.B.H + t e 2  .} } } @.: # e r e t + 5 B.=.%.<.s.",
"(.>.4.4.-.5.:.-.5.H z g k 2 } } } ! $.A d k g k a k 5 5.-.:.6.6.",
"s.d.s.C.R R ] { E -.J.3.K.;.W { } ] *.G.9.Z.9.J.3.K.<.E ! ] R ! ",
"_ _ ' _  .} } }  .Q ` ^ ` / } } } } Q ` ' ` ' ` _ o.X. . . .}  .",
"[ { | {  . .} { } } { ] ]  .} } { {  .{ { [ ] { { { ]  .{  .}  .",
"..}  .{ }  .} }  .} ..{ ..} } { }  .{  .{  .} ..}  .}  . .} {  .",
"} } } } } { } } } ] } } } { } ] } } } } } { [ ( (  . . .{ } { } ",
" .} } } } { } } } } } } } { } } } } } } }  .~ s n o.[ } {  .} } ",
"} ]  .} } } } { }  . .{ } } } ..} {  . .] X.- p b G } } }  .}  .",
"| | | | | ] | | | ] | | | ] | ] [ | [ |  .` I H P >.q.W [ [ [  .",
"S S S S S S S S S S S S S S S C S S S D 3 . X q I 0 F S S S S S ",
"z.z.z.k.l.l.z.l.l.z.k.k.z.z.k.z.z.z.z.f.Z *   > 4 4 Y z.j.l.l.l.",
"k.j.j.j.k.j.k.j.j.j.j.j.j.j.l.j.j.k.j.k.z.j.j.h.h.x.c.j.j.j.k.j.",
"f.g.f.g.f.g.f.g.f.g.g.g.g.g.f.f.f.f.f.Y f.f.g.f.g.f.f.f.g.f.g.f.",
"M.v.M.v.N.v.M.v.M.v.M.v.M.v.M.m.m.m.m.m.v.N.v.M.v.N.v.M.m.M.v.M.",
"A.i.S.u.S.i.A.i.A.i.S.i.S.i.A.p.C.d.d.A.7.(.i.A.u.A.i.A.u.A.8.S.",
"9 7 9 ^ 8 7 8 7 9 7 9 7 9 7 9 7 8 6 ) 8 7 9 7 9 ^ 8 7 8 7 8 ^ 8 ",
"V f V c m B c v m N x L k N f L x L f L k N c N m m c B x M c m ",
"l.j.x.j.j.j.j.j.j.j.j.j.h.j.x.x.j.c.h.c.j.x.j.x.j.j.j.j.j.j.k.k.",
"j.j.j.j.j.j.j.j.j.j.j.j.j.j.j.h.j.h.h.h.j.h.j.h.h.j.j.h.j.h.h.h."
};
